<svg width="64" height="48" viewBox="0 0 64 48" fill="none" xmlns="http://www.w3.org/2000/svg">
<path d="M26.9537 28.21C28.8502 30.7782 31.2604 30.9758 32.4457 30.9758C34.9744 30.9758 36.9499 29.988 38.2538 28.7632C39.2416 27.8149 40.9406 25.7208 40.9406 21.8488C40.9406 18.4508 39.6367 16.3172 38.3724 15.0529C36.4363 13.1168 34.0262 12.7612 32.5247 12.7612C29.3638 12.7612 27.7044 14.4602 26.9537 15.5269V13.3144H22.1333V39.4706H26.9537V28.21ZM31.2208 17.0284C32.3667 17.0284 33.6311 17.463 34.5002 18.2532C35.4485 19.162 35.9622 20.5844 35.9622 21.8488C35.9622 23.1131 35.488 24.5355 34.4608 25.4838C33.8286 26.0764 32.8013 26.7086 31.2208 26.7086C29.7194 26.7086 28.6921 26.1159 28.06 25.5627C27.1117 24.733 26.4795 23.4292 26.4795 21.8488C26.4795 20.2683 27.0327 19.083 28.0995 18.1742C28.9687 17.384 29.9565 17.0284 31.2208 17.0284Z" fill="white"/>
<path d="M19.5573 18.1777V13.3512H14.7309V8.52471H9.90435V13.3512H5.07785V18.1777H9.90435V27.5089H14.7309V18.1777H19.5573Z" fill="white"/>
<path d="M19.5574 27.5089H14.7309V32.3354H19.5574V27.5089Z" fill="white"/>
<path d="M57.6494 36.5618V31.7323H39.733V36.5618H57.6494Z" fill="#14E1CA"/>
</svg>
